<?xml version="1.0" encoding="UTF-8" standalone="no"?>
<!DOCTYPE svg PUBLIC "-//W3C//DTD SVG 1.1//EN" "http://www.w3.org/Graphics/SVG/1.1/DTD/svg11.dtd">
<svg width="100%" height="100%" viewBox="0 0 813 813" version="1.1" xmlns="http://www.w3.org/2000/svg" xmlns:xlink="http://www.w3.org/1999/xlink" xml:space="preserve" xmlns:serif="http://www.serif.com/" style="fill-rule:evenodd;clip-rule:evenodd;stroke-linecap:round;stroke-linejoin:round;stroke-miterlimit:1.5;">
    <g transform="matrix(1,0,0,1,5.68434e-14,27.4772)">
        <g id="Layer1">
            <g>
                <g transform="matrix(-0.951513,0.60761,-0.471215,-0.614945,1097.34,107.175)">
                    <path d="M507.214,212.317C534.769,201.434 576.182,225.573 578.379,237.302C580.213,247.093 558.409,319.577 511.736,298.557C449.16,270.376 397.099,269.926 398.631,242.513C400.449,209.969 472.436,226.052 507.214,212.317Z" style="fill:rgb(47,134,17);stroke:rgb(47,134,17);stroke-width:0.99px;"/>
                </g>
                <g transform="matrix(1.09543,0,0,1,-40.3313,-17.4032)">
                    <path d="M411.002,178.687C411.002,178.687 405.172,152.869 392.854,144.206C380.535,135.543 378.063,114.138 384.661,101.442C391.26,88.746 388.838,59.42 392.473,51.575C394.93,46.274 399.906,38.114 411.002,40.692C426.736,44.348 424.447,71.943 431.195,82.971C437.943,93.998 457.74,115.237 448.947,132.976C441.917,147.161 420.818,179.789 420.818,179.789L411.002,178.687Z" style="fill:rgb(47,134,17);stroke:rgb(47,134,17);stroke-width:0.95px;"/>
                </g>
                <g transform="matrix(1.09543,0,0,1,-40.3313,-17.4032)">
                    <path d="M381.098,358.645C388.372,362.535 406.159,397.405 406.159,397.405L409.985,390.482C409.985,390.482 399.166,378.034 392.65,359.345C389.483,350.262 377.842,356.904 381.098,358.645Z" style="fill:rgb(47,134,17);"/>
                </g>
                <g transform="matrix(0.561913,0.927589,-0.719409,0.363176,243.201,-277.514)">
                    <path d="M486.744,201.787C511.9,180.283 568.44,229.29 576.748,247.941C578.324,251.479 495.22,331.511 475.376,296.736C458.859,267.791 409.028,271.722 408.59,258.226C407.408,221.869 457.35,226.912 486.744,201.787Z" style="fill:rgb(47,134,17);stroke:rgb(47,134,17);stroke-width:1.09px;"/>
                </g>
                <g transform="matrix(-1.31407,0.635967,0.407707,0.702037,1061.45,-57.677)">
                    <path d="M493.934,214.717C519.09,193.214 570.829,216.338 573.107,252.914C573.382,257.335 499.827,343.005 475.735,317.232C453.407,293.346 408.445,299.641 408.59,258.226C408.717,221.814 464.54,239.843 493.934,214.717Z" style="fill:rgb(47,134,17);stroke:rgb(47,134,17);stroke-width:0.88px;"/>
                </g>
                <g transform="matrix(-1.01538,0.600606,0.447037,0.629808,908.437,-110.857)">
                    <path d="M526.357,192.527C551.383,180.676 578.664,219.553 576.748,247.941C575.1,272.359 522.112,300.06 492.591,286.85C476.464,279.634 414.719,304.503 410.632,291.829C390.71,230.051 469.58,219.414 526.357,192.527Z" style="fill:rgb(47,134,17);stroke:rgb(47,134,17);stroke-width:1.04px;"/>
                </g>
                <g transform="matrix(1.09543,0,0,1,-40.3313,-17.4032)">
                    <path d="M411.002,177.103L421.243,177.322C421.777,186.513 422.866,220.56 422.273,265.125C421.16,348.838 417.037,463.341 416.959,486.393C416.838,521.717 416.129,538.155 416.129,538.155L398.354,536.83L411.002,177.103Z" style="fill:rgb(47,134,17);"/>
                </g>
                <g transform="matrix(1.09543,0,0,1,-40.3313,-17.4032)">
                    <path d="M409.985,433.758C409.985,433.758 430.044,411.624 433.829,403.078C439.357,390.598 451.823,405.833 441.224,410.672C418.293,421.141 409.985,452.503 409.985,452.503L409.985,433.758Z" style="fill:rgb(47,134,17);"/>
                </g>
                <g transform="matrix(1.09543,0,0,1,-42.9379,-6.60381)">
                    <path d="M434.607,312.251L416.959,334.355L416.959,352.726C416.959,352.726 426.275,322.54 440.53,316.959C443.771,315.689 434.607,312.251 434.607,312.251Z" style="fill:rgb(47,134,17);"/>
                </g>
                <g transform="matrix(1.30699,0.19705,0.155849,-0.861442,-387.617,569.751)">
                    <path d="M490.993,199.455C513.582,180.403 577.613,221.576 576.748,247.941C575.944,272.44 521.32,303.068 492.591,286.85C467.588,272.736 413.377,309.727 403.812,274.566C393.869,238.016 442.974,239.956 490.993,199.455Z" style="fill:rgb(47,134,17);stroke:rgb(47,134,17);stroke-width:0.88px;"/>
                </g>
                <g transform="matrix(1.07095,0.409585,-0.317661,0.692174,-127.5,-3.47182)">
                    <path d="M495.735,202.111C520.992,180.462 572.838,239.293 571.898,252.854C570.959,266.415 521.047,302.958 495.013,277.608C478.008,261.05 403.892,293.125 408.59,258.226C412.57,228.655 464.078,229.246 495.735,202.111Z" style="fill:rgb(47,134,17);stroke:rgb(47,134,17);stroke-width:1.06px;"/>
                </g>
                <g transform="matrix(1.09543,0,0,1,-40.3313,-26.4965)">
                    <path d="M416.959,204.558C416.959,204.558 461.128,151.538 483.747,140.126C506.366,128.713 525.302,111.2 529.436,116.284C533.569,121.368 513.52,154.82 503.906,167.773C494.292,180.725 472.446,188.147 455.121,188.063C437.796,187.978 430.78,197.816 426.712,201.85C422.643,205.883 420.622,229.4 420.622,229.4L416.959,204.558Z" style="fill:rgb(47,134,17);stroke:rgb(47,134,17);stroke-width:0.95px;"/>
                </g>
                <g transform="matrix(1.09543,0,0,1,-40.3313,-24.5693)">
                    <path d="M416.959,252.103L426.712,241.245C426.712,241.245 434.659,209.206 456.189,198.89C477.72,188.575 499.303,190.311 512.732,185.058C526.161,179.804 532.578,173.571 540.716,170.592C544.499,169.208 552.647,179.248 550.471,185.728C548.294,192.208 500.638,231.86 494.647,235.458C488.657,239.056 455.808,252.636 446.768,248.46C435.55,243.277 416.959,268.666 416.959,268.666L416.959,252.103Z" style="fill:rgb(47,134,17);stroke:rgb(47,134,17);stroke-width:0.95px;"/>
                </g>
                <g transform="matrix(1.09543,0,0,1,-40.3313,-17.4032)">
                    <path d="M413.739,279.467C413.739,279.467 404.004,262.525 393.485,261.5C382.967,260.474 370.785,256.693 361.607,242.226C352.43,227.76 335.776,198.952 331.772,186.032C327.768,173.112 322.043,150.219 333.918,144.239C354.266,133.993 360.402,162.104 371.271,170.463C382.141,178.822 396.759,192.971 397.448,209.017C398.137,225.063 395.782,240.294 406.214,256.456C413.105,267.131 416.959,277.709 416.959,277.709L413.739,279.467Z" style="fill:rgb(47,134,17);stroke:rgb(47,134,17);stroke-width:0.95px;"/>
                </g>
                <g transform="matrix(0.804722,0,0,0.79905,82.0399,120.293)">
                    <path d="M567.22,768.891L238.459,768.891L320.65,507.163L485.03,507.163L567.22,768.891Z" style="fill:rgb(47,134,17);stroke:rgb(47,134,17);stroke-width:47.52px;"/>
                </g>
            </g>
        </g>
    </g>
</svg>
